<svg height="auto" viewBox="0 0 2000 1000" xmlns="http://www.w3.org/2000/svg"><path d="M0 999.895c21-6.014 63-12.376 105-30.067 42-17.692 63-35.07 105-58.391 42-23.322 63-53.05 105-58.219 42-5.168 63 44.448 105 32.375s63-76.594 105-92.74c42-16.145 63 34.935 105 12.012 42-22.923 63-80.918 105-126.625 42-45.707 63-97.685 105-101.91 42-4.224 63 101.826 105 80.787 42-21.04 63-188.148 105-185.982 42 2.166 63 202.515 105 196.81 42-5.705 63-210.07 105-225.334 42-15.265 63 166.446 105 149.013 42-17.433 63-165.921 105-236.179 42-70.258 63-154.823 105-115.11 42 39.712 63 310.08 105 313.673 42 3.593 63-221.104 105-295.708 42-74.604 63-57.171 105-77.31 42-20.14 84-18.71 105-23.388l5 842.398H0Z" fill="#444cf71a"/><path d="M0 999.895c21-6.014 63-12.376 105-30.067 42-17.692 63-35.07 105-58.391 42-23.322 63-53.05 105-58.219 42-5.168 63 44.448 105 32.375s63-76.594 105-92.74c42-16.145 63 34.935 105 12.012 42-22.923 63-80.918 105-126.625 42-45.707 63-97.685 105-101.91 42-4.224 63 101.826 105 80.787 42-21.04 63-188.148 105-185.982 42 2.166 63 202.515 105 196.81 42-5.705 63-210.07 105-225.334 42-15.265 63 166.446 105 149.013 42-17.433 63-165.921 105-236.179 42-70.258 63-154.823 105-115.11 42 39.712 63 310.08 105 313.673 42 3.593 63-221.104 105-295.708 42-74.604 63-57.171 105-77.31 42-20.14 84-18.71 105-23.388" fill="none" stroke="#444cf7" stroke-width="4"/><g fill="#444cf7"><circle cy="999.895" r="8"/><circle cx="105" cy="969.828" r="8"/><circle cx="210" cy="911.437" r="8"/><circle cx="315" cy="853.218" r="8"/><circle cx="420" cy="885.593" r="8"/><circle cx="525" cy="792.853" r="8"/><circle cx="630" cy="804.865" r="8"/><circle cx="735" cy="678.24" r="8"/><circle cx="840" cy="576.331" r="8"/><circle cx="945" cy="657.117" r="8"/><circle cx="1050" cy="471.135" r="8"/><circle cx="1155" cy="667.945" r="8"/><circle cx="1260" cy="442.611" r="8"/><circle cx="1365" cy="591.624" r="8"/><circle cx="1470" cy="355.445" r="8"/><circle cx="1575" cy="240.335" r="8"/><circle cx="1680" cy="554.008" r="8"/><circle cx="1785" cy="258.3" r="8"/><circle cx="1890" cy="180.989" r="8"/><circle cx="1995" cy="157.602" r="8"/></g></svg>