<svg height="auto" viewBox="0 0 2000 1000" xmlns="http://www.w3.org/2000/svg"><path d="M0 988.278c21-5.65 63-10.37 105-28.253 42-17.883 63-45.412 105-61.162s63 3.22 105-17.589c42-20.807 63-76.45 105-86.45 42-10.001 63 47.783 105 36.446 42-11.337 63-76.453 105-93.131 42-16.678 63 30.903 105 9.741s63-107.729 105-115.55c42-7.822 63 64.41 105 76.443 42 12.033 63 .044 105-16.277 42-16.32 63-40.294 105-65.327 42-25.034 63-20.623 105-59.84 42-39.216 63-82.91 105-136.242 42-53.331 63-118.629 105-130.414 42-11.786 63 48.755 105 71.487 42 22.733 63 22.584 105 42.175 42 19.592 63 64.515 105 55.78 42-8.733 63-12.214 105-99.45 42-87.234 84-269.38 105-336.726l5 966.061H0Z" fill="#00c9221a"/><path d="M0 988.278c21-5.65 63-10.37 105-28.253 42-17.883 63-45.412 105-61.162s63 3.22 105-17.589c42-20.807 63-76.45 105-86.45 42-10.001 63 47.783 105 36.446 42-11.337 63-76.453 105-93.131 42-16.678 63 30.903 105 9.741s63-107.729 105-115.55c42-7.822 63 64.41 105 76.443 42 12.033 63 .044 105-16.277 42-16.32 63-40.294 105-65.327 42-25.034 63-20.623 105-59.84 42-39.216 63-82.91 105-136.242 42-53.331 63-118.629 105-130.414 42-11.786 63 48.755 105 71.487 42 22.733 63 22.584 105 42.175 42 19.592 63 64.515 105 55.78 42-8.733 63-12.214 105-99.45 42-87.234 84-269.38 105-336.726" fill="none" stroke="#00c922" stroke-width="4"/><g fill="#00c922"><circle cy="988.278" r="8"/><circle cx="105" cy="960.025" r="8"/><circle cx="210" cy="898.863" r="8"/><circle cx="315" cy="881.274" r="8"/><circle cx="420" cy="794.824" r="8"/><circle cx="525" cy="831.27" r="8"/><circle cx="630" cy="738.139" r="8"/><circle cx="735" cy="747.88" r="8"/><circle cx="840" cy="632.33" r="8"/><circle cx="945" cy="708.773" r="8"/><circle cx="1050" cy="692.496" r="8"/><circle cx="1155" cy="627.169" r="8"/><circle cx="1260" cy="567.33" r="8"/><circle cx="1365" cy="431.087" r="8"/><circle cx="1470" cy="300.673" r="8"/><circle cx="1575" cy="372.16" r="8"/><circle cx="1680" cy="414.335" r="8"/><circle cx="1785" cy="470.116" r="8"/><circle cx="1890" cy="370.666" r="8"/><circle cx="1995" cy="33.939" r="8"/></g></svg>