<svg height="auto" viewBox="0 0 2000 1000" xmlns="http://www.w3.org/2000/svg"><path d="M0 400.606c21-25.779 63-161.682 105-128.894 42 32.789 63 282.516 105 292.836 42 10.32 63-261.13 105-241.237s63 359.547 105 340.701c42-18.845 63-444.667 105-434.927 42 9.74 63 480.549 105 483.628 42 3.079 63-374.933 105-468.233 42-93.3 63-76.935 105 1.732 42 78.666 63 398.814 105 391.6 42-7.215 63-422.167 105-427.672 42-5.504 63 415.156 105 400.15 42-15.007 63-392.928 105-475.182 42-82.255 63-3.265 105 63.91 42 67.176 63 210.642 105 271.969s63 .757 105 34.668c42 33.91 63 146.891 105 134.884 42-12.007 63-212.401 105-194.92 42 17.48 63 310.439 105 282.323 42-28.115 84-338.32 105-422.901l5 694.959H0Z" fill="#00c9221a"/><path d="M0 400.606c21-25.779 63-161.682 105-128.894 42 32.789 63 282.516 105 292.836 42 10.32 63-261.13 105-241.237s63 359.547 105 340.701c42-18.845 63-444.667 105-434.927 42 9.74 63 480.549 105 483.628 42 3.079 63-374.933 105-468.233 42-93.3 63-76.935 105 1.732 42 78.666 63 398.814 105 391.6 42-7.215 63-422.167 105-427.672 42-5.504 63 415.156 105 400.15 42-15.007 63-392.928 105-475.182 42-82.255 63-3.265 105 63.91 42 67.176 63 210.642 105 271.969s63 .757 105 34.668c42 33.91 63 146.891 105 134.884 42-12.007 63-212.401 105-194.92 42 17.48 63 310.439 105 282.323 42-28.115 84-338.32 105-422.901" fill="none" stroke="#00c922" stroke-width="4"/></svg>