<svg height="auto" viewBox="0 0 2000 1000" xmlns="http://www.w3.org/2000/svg"><path d="M0 1000h80V19.527q0-4-4-4H4q-4 0-4 4ZM100 1000h80V48.857q0-4-4-4h-72q-4 0-4 4ZM200 1000h80V102.869q0-4-4-4h-72q-4 0-4 4ZM300 1000h80V128.614q0-4-4-4h-72q-4 0-4 4ZM400 1000h80V140.858q0-4-4-4h-72q-4 0-4 4ZM500 1000h80V146.253q0-4-4-4h-72q-4 0-4 4ZM600 1000h80V213.75q0-4-4-4h-72q-4 0-4 4ZM700 1000h80V278.752q0-4-4-4h-72q-4 0-4 4ZM800 1000h80V270.263q0-4-4-4h-72q-4 0-4 4ZM900 1000h80V392.472q0-4-4-4h-72q-4 0-4 4ZM1000 1000h80V363.847q0-4-4-4h-72q-4 0-4 4ZM1100 1000h80V585.03q0-4-4-4h-72q-4 0-4 4ZM1200 1000h80V421.699q0-4-4-4h-72q-4 0-4 4ZM1300 1000h80V621.195q0-4-4-4h-72q-4 0-4 4ZM1400 1000h80V576.499q0-4-4-4h-72q-4 0-4 4ZM1500 1000h80V444.452q0-4-4-4h-72q-4 0-4 4ZM1600 1000h80V838.51q0-4-4-4h-72q-4 0-4 4ZM1700 1000h80V735.81q0-4-4-4h-72q-4 0-4 4ZM1800 1000h80V714.382q0-4-4-4h-72q-4 0-4 4ZM1900 1000h80V555.133q0-4-4-4h-72q-4 0-4 4Z" fill="#cab600"/></svg>