<svg height="auto" viewBox="0 0 2000 1000" xmlns="http://www.w3.org/2000/svg"><path d="M0 18.257c21 2.285 63-5.693 105 11.429 42 17.121 63 62.697 105 74.177 42 11.48 63-33.8 105-16.776 42 17.025 63 76.16 105 101.899 42 25.74 63 3.748 105 26.799 42 23.05 63 84.065 105 88.452 42 4.388 63-86.553 105-66.514s63 143.885 105 166.71c42 22.824 63-49.027 105-52.588 42-3.562 63 37.467 105 34.778s63-60.133 105-48.224c42 11.91 63 49.872 105 107.77 42 57.9 63 138.58 105 181.725 42 43.145 63 65.56 105 34.002 42-31.557 63-179.016 105-191.79 42-12.776 63 53.959 105 127.916 42 73.958 63 230.865 105 241.871s63-164.857 105-186.842c42-21.984 84 61.534 105 76.918l5 270.031H0Z" fill="#00c9221a"/><path d="M0 18.257c21 2.285 63-5.693 105 11.429 42 17.121 63 62.697 105 74.177 42 11.48 63-33.8 105-16.776 42 17.025 63 76.16 105 101.899 42 25.74 63 3.748 105 26.799 42 23.05 63 84.065 105 88.452 42 4.388 63-86.553 105-66.514s63 143.885 105 166.71c42 22.824 63-49.027 105-52.588 42-3.562 63 37.467 105 34.778s63-60.133 105-48.224c42 11.91 63 49.872 105 107.77 42 57.9 63 138.58 105 181.725 42 43.145 63 65.56 105 34.002 42-31.557 63-179.016 105-191.79 42-12.776 63 53.959 105 127.916 42 73.958 63 230.865 105 241.871s63-164.857 105-186.842c42-21.984 84 61.534 105 76.918" fill="none" stroke="#00c922" stroke-width="4"/><g fill="#00c922"><circle cy="18.257" r="8"/><circle cx="105" cy="29.686" r="8"/><circle cx="210" cy="103.863" r="8"/><circle cx="315" cy="87.087" r="8"/><circle cx="420" cy="188.986" r="8"/><circle cx="525" cy="215.785" r="8"/><circle cx="630" cy="304.237" r="8"/><circle cx="735" cy="237.723" r="8"/><circle cx="840" cy="404.433" r="8"/><circle cx="945" cy="351.845" r="8"/><circle cx="1050" cy="386.623" r="8"/><circle cx="1155" cy="338.399" r="8"/><circle cx="1260" cy="446.17" r="8"/><circle cx="1365" cy="627.894" r="8"/><circle cx="1470" cy="661.896" r="8"/><circle cx="1575" cy="470.105" r="8"/><circle cx="1680" cy="598.022" r="8"/><circle cx="1785" cy="839.893" r="8"/><circle cx="1890" cy="653.051" r="8"/><circle cx="1995" cy="729.969" r="8"/></g></svg>