<svg width="186" height="37" viewBox="0 0 186 37" fill="none" xmlns="http://www.w3.org/2000/svg">
<g clip-path="url(#clip0_0_3147)">
<path d="M13 30C20.1797 30 26 24.1797 26 17C26 9.8203 20.1797 4 13 4C5.8203 4 0 9.8203 0 17C0 24.1797 5.8203 30 13 30Z" fill="#213887"/>
<path fill-rule="evenodd" clip-rule="evenodd" d="M5.88454 16.8629C9.6743 15.2118 12.2014 14.1233 13.4659 13.5973C17.0761 12.0957 17.8263 11.8349 18.3152 11.8263C18.4228 11.8244 18.6632 11.851 18.819 11.9774C18.9505 12.0841 18.9867 12.2283 19.004 12.3295C19.0213 12.4306 19.0429 12.6611 19.0257 12.8412C18.8301 14.8968 17.9836 19.8852 17.5529 22.1876C17.3707 23.1617 17.0118 23.4884 16.6645 23.5204C15.9095 23.5898 15.3363 23.0214 14.6051 22.5421C13.4609 21.7921 12.8145 21.3252 11.7039 20.5934C10.4204 19.7475 11.2524 19.2827 11.9839 18.5229C12.1753 18.3241 15.5016 15.2986 15.566 15.0242C15.574 14.9899 15.5815 14.8619 15.5055 14.7943C15.4295 14.7268 15.3173 14.7499 15.2363 14.7683C15.1216 14.7943 13.2937 16.0024 9.75285 18.3926C9.23403 18.7489 8.7641 18.9225 8.34305 18.9134C7.87889 18.9033 6.98601 18.6509 6.32226 18.4352C5.50813 18.1705 4.86108 18.0306 4.91742 17.5812C4.94677 17.3471 5.26914 17.1077 5.88454 16.8629Z" fill="white"/>
</g>
<path d="M61.73 16.216H57.888V23.288C57.888 23.8773 58.0353 24.308 58.33 24.58C58.6247 24.852 59.0553 25.0107 59.622 25.056C60.1887 25.0787 60.8913 25.0673 61.73 25.022V29C58.7153 29.34 56.5847 29.0567 55.338 28.15C54.114 27.2433 53.502 25.6227 53.502 23.288V16.216H50.544V12H53.502V8.566L57.888 7.24V12H61.73V16.216ZM66.9772 22.302C67.5665 24.4327 69.1645 25.498 71.7712 25.498C73.4485 25.498 74.7178 24.9313 75.5792 23.798L79.1152 25.838C77.4378 28.2633 74.9672 29.476 71.7032 29.476C68.8925 29.476 66.6372 28.626 64.9372 26.926C63.2372 25.226 62.3872 23.084 62.3872 20.5C62.3872 17.9387 63.2258 15.808 64.9032 14.108C66.5805 12.3853 68.7338 11.524 71.3632 11.524C73.8565 11.524 75.9078 12.3853 77.5172 14.108C79.1492 15.8307 79.9652 17.9613 79.9652 20.5C79.9652 21.0667 79.9085 21.6673 79.7952 22.302H66.9772ZM66.9092 18.902H75.5792C75.3298 17.746 74.8085 16.8847 74.0152 16.318C73.2445 15.7513 72.3605 15.468 71.3632 15.468C70.1845 15.468 69.2098 15.774 68.4392 16.386C67.6685 16.9753 67.1585 17.814 66.9092 18.902ZM82.007 29V4.18H86.393V29H82.007ZM93.0934 22.302C93.6827 24.4327 95.2807 25.498 97.8874 25.498C99.5647 25.498 100.834 24.9313 101.695 23.798L105.231 25.838C103.554 28.2633 101.083 29.476 97.8194 29.476C95.0087 29.476 92.7534 28.626 91.0534 26.926C89.3534 25.226 88.5034 23.084 88.5034 20.5C88.5034 17.9387 89.3421 15.808 91.0194 14.108C92.6967 12.3853 94.8501 11.524 97.4794 11.524C99.9727 11.524 102.024 12.3853 103.633 14.108C105.265 15.8307 106.081 17.9613 106.081 20.5C106.081 21.0667 106.025 21.6673 105.911 22.302H93.0934ZM93.0254 18.902H101.695C101.446 17.746 100.925 16.8847 100.131 16.318C99.3607 15.7513 98.4767 15.468 97.4794 15.468C96.3007 15.468 95.3261 15.774 94.5554 16.386C93.7847 16.9753 93.2747 17.814 93.0254 18.902ZM121.012 12H125.296V28.184C125.296 30.8133 124.424 32.8193 122.678 34.202C120.956 35.5847 118.87 36.276 116.422 36.276C114.586 36.276 112.966 35.9247 111.56 35.222C110.178 34.5193 109.112 33.488 108.364 32.128L112.104 29.986C112.966 31.5727 114.45 32.366 116.558 32.366C117.941 32.366 119.029 32.0033 119.822 31.278C120.616 30.5527 121.012 29.5213 121.012 28.184V26.348C119.72 28.0707 117.907 28.932 115.572 28.932C113.17 28.932 111.152 28.0933 109.52 26.416C107.911 24.716 107.106 22.6533 107.106 20.228C107.106 17.8253 107.922 15.774 109.554 14.074C111.186 12.374 113.192 11.524 115.572 11.524C117.907 11.524 119.72 12.3853 121.012 14.108V12ZM112.818 23.594C113.725 24.4553 114.87 24.886 116.252 24.886C117.635 24.886 118.768 24.4553 119.652 23.594C120.559 22.71 121.012 21.588 121.012 20.228C121.012 18.8907 120.559 17.7913 119.652 16.93C118.768 16.046 117.635 15.604 116.252 15.604C114.87 15.604 113.725 16.046 112.818 16.93C111.934 17.7913 111.492 18.8907 111.492 20.228C111.492 21.588 111.934 22.71 112.818 23.594ZM132.64 14.924C133.048 13.836 133.716 13.02 134.646 12.476C135.598 11.932 136.652 11.66 137.808 11.66V16.556C136.47 16.3973 135.269 16.6693 134.204 17.372C133.161 18.0747 132.64 19.242 132.64 20.874V29H128.254V12H132.64V14.924ZM151.642 12H156.028V29H151.642V26.994C150.327 28.6487 148.48 29.476 146.1 29.476C143.833 29.476 141.884 28.6147 140.252 26.892C138.643 25.1467 137.838 23.016 137.838 20.5C137.838 17.984 138.643 15.8647 140.252 14.142C141.884 12.3967 143.833 11.524 146.1 11.524C148.48 11.524 150.327 12.3513 151.642 14.006V12ZM143.55 23.968C144.434 24.852 145.556 25.294 146.916 25.294C148.276 25.294 149.398 24.852 150.282 23.968C151.189 23.0613 151.642 21.9053 151.642 20.5C151.642 19.0947 151.189 17.95 150.282 17.066C149.398 16.1593 148.276 15.706 146.916 15.706C145.556 15.706 144.434 16.1593 143.55 17.066C142.666 17.95 142.224 19.0947 142.224 20.5C142.224 21.9053 142.666 23.0613 143.55 23.968ZM177.787 11.524C179.736 11.524 181.289 12.1587 182.445 13.428C183.624 14.6973 184.213 16.3973 184.213 18.528V29H179.827V18.834C179.827 17.814 179.578 17.0207 179.079 16.454C178.58 15.8873 177.878 15.604 176.971 15.604C175.974 15.604 175.192 15.9327 174.625 16.59C174.081 17.2473 173.809 18.1993 173.809 19.446V29H169.423V18.834C169.423 17.814 169.174 17.0207 168.675 16.454C168.176 15.8873 167.474 15.604 166.567 15.604C165.592 15.604 164.81 15.9327 164.221 16.59C163.654 17.2473 163.371 18.1993 163.371 19.446V29H158.985V12H163.371V13.802C164.391 12.2833 165.966 11.524 168.097 11.524C170.182 11.524 171.724 12.34 172.721 13.972C173.854 12.34 175.543 11.524 177.787 11.524Z" fill="#142251"/>
<defs>
<clipPath id="clip0_0_3147">
<rect width="26" height="26" fill="white" transform="translate(0 4)"/>
</clipPath>
</defs>
</svg>
