<svg width="200" height="36" viewBox="0 0 200 36" fill="none" xmlns="http://www.w3.org/2000/svg">
<path fill-rule="evenodd" clip-rule="evenodd" d="M12.0453 28.8505H12.0502C18.6388 28.8478 23.9974 23.4879 24 16.9008C24.0013 13.7078 22.7594 10.7055 20.5033 8.44688C18.2472 6.18811 15.2468 4.94364 12.0501 4.94226C5.4635 4.94226 0.102809 10.3027 0.100188 16.8913C0.099291 18.9974 0.649554 21.0531 1.69529 22.8654L0 29.0577L6.33478 27.396C8.08018 28.348 10.0453 28.8498 12.0453 28.8505ZM17.6619 19.4736C17.8701 19.5743 18.0107 19.6422 18.0708 19.7425C18.1454 19.867 18.1454 20.4648 17.8967 21.1624C17.6478 21.8598 16.4549 22.4964 15.8812 22.5821C15.3668 22.659 14.7159 22.6911 14.0006 22.4637C13.5669 22.3262 13.0108 22.1424 12.2984 21.8348C9.49924 20.6261 7.60757 17.9131 7.25005 17.4003C7.22501 17.3644 7.20749 17.3393 7.19772 17.3262L7.19531 17.323C7.0373 17.1122 5.97852 15.6995 5.97852 14.2375C5.97852 12.8621 6.65412 12.1412 6.9651 11.8094C6.9864 11.7867 7.00599 11.7658 7.02354 11.7466C7.29723 11.4477 7.62073 11.3729 7.81977 11.3729C8.0188 11.3729 8.21807 11.3748 8.39204 11.3835C8.4135 11.3846 8.43583 11.3844 8.45891 11.3843C8.63291 11.3833 8.84984 11.382 9.06384 11.8961C9.14616 12.0939 9.26662 12.3871 9.39367 12.6964C9.6506 13.3219 9.93448 14.0131 9.98443 14.1131C10.0591 14.2626 10.1088 14.4368 10.0093 14.6362C9.99438 14.6661 9.98056 14.6943 9.96736 14.7213C9.89261 14.8739 9.83762 14.9861 9.71075 15.1343C9.66086 15.1925 9.60929 15.2553 9.55773 15.3181C9.45501 15.4432 9.3523 15.5683 9.26286 15.6574C9.11338 15.8063 8.95777 15.9678 9.13195 16.2668C9.30612 16.5657 9.90536 17.5434 10.793 18.3352C11.7472 19.1863 12.5765 19.546 12.9968 19.7283C13.0789 19.7639 13.1454 19.7928 13.1942 19.8172C13.4927 19.9667 13.6668 19.9417 13.841 19.7425C14.0152 19.5432 14.5874 18.8706 14.7865 18.5717C14.9855 18.2729 15.1846 18.3227 15.4582 18.4223C15.732 18.522 17.2 19.2442 17.4986 19.3937C17.5568 19.4229 17.6113 19.4492 17.6619 19.4736Z" fill="#213887"/>
<path d="M69.148 12H73.806L68.4 29H64.218L61.09 18.698L57.962 29H53.78L48.374 12H53.032L55.922 22.438L59.016 12H63.164L66.258 22.472L69.148 12ZM84.6021 11.524C86.4607 11.524 87.9907 12.1473 89.1921 13.394C90.4161 14.6407 91.0281 16.3633 91.0281 18.562V29H86.6421V19.106C86.6421 17.9727 86.3361 17.1113 85.7241 16.522C85.1121 15.91 84.2961 15.604 83.2761 15.604C82.1427 15.604 81.2361 15.9553 80.5561 16.658C79.8761 17.3607 79.5361 18.4147 79.5361 19.82V29H75.1501V5.2H79.5361V13.904C80.6014 12.3173 82.2901 11.524 84.6021 11.524ZM106.673 12H111.059V29H106.673V26.994C105.358 28.6487 103.511 29.476 101.131 29.476C98.8644 29.476 96.9151 28.6147 95.2831 26.892C93.6738 25.1467 92.8691 23.016 92.8691 20.5C92.8691 17.984 93.6738 15.8647 95.2831 14.142C96.9151 12.3967 98.8644 11.524 101.131 11.524C103.511 11.524 105.358 12.3513 106.673 14.006V12ZM98.5811 23.968C99.4651 24.852 100.587 25.294 101.947 25.294C103.307 25.294 104.429 24.852 105.313 23.968C106.22 23.0613 106.673 21.9053 106.673 20.5C106.673 19.0947 106.22 17.95 105.313 17.066C104.429 16.1593 103.307 15.706 101.947 15.706C100.587 15.706 99.4651 16.1593 98.5811 17.066C97.6971 17.95 97.2551 19.0947 97.2551 20.5C97.2551 21.9053 97.6971 23.0613 98.5811 23.968ZM123.74 16.216H119.898V23.288C119.898 23.8773 120.046 24.308 120.34 24.58C120.635 24.852 121.066 25.0107 121.632 25.056C122.199 25.0787 122.902 25.0673 123.74 25.022V29C120.726 29.34 118.595 29.0567 117.348 28.15C116.124 27.2433 115.512 25.6227 115.512 23.288V16.216H112.554V12H115.512V8.566L119.898 7.24V12H123.74V16.216ZM129.493 16.828C129.493 17.2813 129.788 17.6553 130.377 17.95C130.989 18.222 131.726 18.4713 132.587 18.698C133.449 18.902 134.31 19.174 135.171 19.514C136.033 19.8313 136.758 20.3753 137.347 21.146C137.959 21.9167 138.265 22.88 138.265 24.036C138.265 25.7813 137.608 27.13 136.293 28.082C135.001 29.0113 133.381 29.476 131.431 29.476C127.941 29.476 125.561 28.1273 124.291 25.43L128.099 23.288C128.598 24.7613 129.709 25.498 131.431 25.498C132.995 25.498 133.777 25.0107 133.777 24.036C133.777 23.5827 133.471 23.22 132.859 22.948C132.27 22.6533 131.545 22.3927 130.683 22.166C129.822 21.9393 128.961 21.656 128.099 21.316C127.238 20.976 126.501 20.4433 125.889 19.718C125.3 18.97 125.005 18.0407 125.005 16.93C125.005 15.2527 125.617 13.938 126.841 12.986C128.088 12.0113 129.629 11.524 131.465 11.524C132.848 11.524 134.106 11.8413 135.239 12.476C136.373 13.088 137.268 13.972 137.925 15.128L134.185 17.168C133.641 16.012 132.735 15.434 131.465 15.434C130.899 15.434 130.423 15.5587 130.037 15.808C129.675 16.0573 129.493 16.3973 129.493 16.828ZM152.754 12H157.14V29H152.754V26.994C151.439 28.6487 149.592 29.476 147.212 29.476C144.945 29.476 142.996 28.6147 141.364 26.892C139.754 25.1467 138.95 23.016 138.95 20.5C138.95 17.984 139.754 15.8647 141.364 14.142C142.996 12.3967 144.945 11.524 147.212 11.524C149.592 11.524 151.439 12.3513 152.754 14.006V12ZM144.662 23.968C145.546 24.852 146.668 25.294 148.028 25.294C149.388 25.294 150.51 24.852 151.394 23.968C152.3 23.0613 152.754 21.9053 152.754 20.5C152.754 19.0947 152.3 17.95 151.394 17.066C150.51 16.1593 149.388 15.706 148.028 15.706C146.668 15.706 145.546 16.1593 144.662 17.066C143.778 17.95 143.336 19.0947 143.336 20.5C143.336 21.9053 143.778 23.0613 144.662 23.968ZM169.991 11.524C172.28 11.524 174.23 12.3967 175.839 14.142C177.471 15.8647 178.287 17.984 178.287 20.5C178.287 23.016 177.471 25.1467 175.839 26.892C174.23 28.6147 172.28 29.476 169.991 29.476C167.611 29.476 165.775 28.6487 164.483 26.994V35.8H160.097V12H164.483V14.006C165.775 12.3513 167.611 11.524 169.991 11.524ZM165.809 23.968C166.693 24.852 167.815 25.294 169.175 25.294C170.535 25.294 171.657 24.852 172.541 23.968C173.448 23.0613 173.901 21.9053 173.901 20.5C173.901 19.0947 173.448 17.95 172.541 17.066C171.657 16.1593 170.535 15.706 169.175 15.706C167.815 15.706 166.693 16.1593 165.809 17.066C164.925 17.95 164.483 19.0947 164.483 20.5C164.483 21.9053 164.925 23.0613 165.809 23.968ZM190.254 11.524C192.543 11.524 194.493 12.3967 196.102 14.142C197.734 15.8647 198.55 17.984 198.55 20.5C198.55 23.016 197.734 25.1467 196.102 26.892C194.493 28.6147 192.543 29.476 190.254 29.476C187.874 29.476 186.038 28.6487 184.746 26.994V35.8H180.36V12H184.746V14.006C186.038 12.3513 187.874 11.524 190.254 11.524ZM186.072 23.968C186.956 24.852 188.078 25.294 189.438 25.294C190.798 25.294 191.92 24.852 192.804 23.968C193.711 23.0613 194.164 21.9053 194.164 20.5C194.164 19.0947 193.711 17.95 192.804 17.066C191.92 16.1593 190.798 15.706 189.438 15.706C188.078 15.706 186.956 16.1593 186.072 17.066C185.188 17.95 184.746 19.0947 184.746 20.5C184.746 21.9053 185.188 23.0613 186.072 23.968Z" fill="#142251"/>
</svg>
